<?xml version="1.0" encoding="UTF-8"?>
<svg width="3000" height="1800" viewBox="0 0 3000 1800" xmlns="http://www.w3.org/2000/svg" role="img" aria-label="POLARIS Variant B – white star on navy">
  <rect width="3000" height="1800" fill="#092a58"/>
  <defs>
    <!-- Inner glow for white star (subtle, contained) -->
    <radialGradient id="innerGlowWhite" cx="50%" cy="40%" r="55%">
      <stop offset="0%" stop-color="#ffffff" stop-opacity="0.5"/>
      <stop offset="65%" stop-color="#ffffff" stop-opacity="1"/>
      <stop offset="100%" stop-color="#ffffff" stop-opacity="1"/>
    </radialGradient>
  </defs>

  <!-- Centered 10-arm star in white with inner glow -->
  <g transform="translate(1500,700)">
    <polygon points="0,-360 -120,-80 120,-80" fill="url(#innerGlowWhite)"/>
    <polygon points="0,-360 -120,-80 120,-80" fill="url(#innerGlowWhite)" transform="rotate(36)"/>
    <polygon points="0,-360 -120,-80 120,-80" fill="url(#innerGlowWhite)" transform="rotate(72)"/>
    <polygon points="0,-360 -120,-80 120,-80" fill="url(#innerGlowWhite)" transform="rotate(108)"/>
    <polygon points="0,-360 -120,-80 120,-80" fill="url(#innerGlowWhite)" transform="rotate(144)"/>
    <polygon points="0,-360 -120,-80 120,-80" fill="url(#innerGlowWhite)" transform="rotate(180)"/>
    <polygon points="0,-360 -120,-80 120,-80" fill="url(#innerGlowWhite)" transform="rotate(216)"/>
    <polygon points="0,-360 -120,-80 120,-80" fill="url(#innerGlowWhite)" transform="rotate(252)"/>
    <polygon points="0,-360 -120,-80 120,-80" fill="url(#innerGlowWhite)" transform="rotate(288)"/>
    <polygon points="0,-360 -120,-80 120,-80" fill="url(#innerGlowWhite)" transform="rotate(324)"/>
  </g>

  <!-- Wordmark centered beneath star -->
  <text x="1500" y="1220" text-anchor="middle" font-family="Helvetica, Arial, sans-serif" font-weight="700" font-size="240" fill="#ffffff" letter-spacing="12">POLARIS</text>
</svg>