<?xml version="1.0" encoding="UTF-8"?>
<svg width="720" height="160" viewBox="0 0 720 160" fill="none" xmlns="http://www.w3.org/2000/svg" role="img" aria-label="POLARIS logo">
  <rect width="720" height="160" fill="#FFFFFF"/>
  <!-- Design constants -->
  <!-- Deep navy per spec -->
  <g fill="#0A2F57">
    <!-- Geometric eight-point star (left), precise and symmetrical -->
    <!-- Constructed as an octagram with alternating radii; tuned for crisp edges -->
    <polygon points="
      60,12  
      72,52  
      112,40 
      80,72  
      128,80 
      80,88  
      112,120
      72,108 
      60,148 
      48,108 
      8,120  
      40,88  
      -8,80  
      40,72  
      8,40   
      48,52  " 
      transform="translate(40,0)"/>

    <!-- Wordmark: POLARIS (bold geometric sans proportions) as vector paths for consistency -->
    <!-- The following outlines approximate classic geometric sans shapes for strong legibility -->
    <!-- P -->
    <path d="M200 122V38h34c24 0 38 12 38 30s-14 30-38 30h-18v24h-16Zm16-68h18c14 0 22 6 22 14s-8 14-22 14h-18V54Z"/>
    <!-- O -->
    <path d="M300 126c-28 0-50-22-50-48s22-48 50-48 50 22 50 48-22 48-50 48Zm0-16c18 0 34-14 34-32s-16-32-34-32-34 14-34 32 16 32 34 32Z"/>
    <!-- L -->
    <path d="M388 122V38h16v68h48v16h-64Z"/>
    <!-- A -->
    <path d="M536 122h-18l-12-28h-46l-12 28h-18l42-84h22l42 84Zm-36-44-15-34-15 34h30Z"/>
    <!-- R -->
    <path d="M564 122V38h36c24 0 40 12 40 30 0 12-7 22-20 28l24 26h-20l-22-24h-22v24h-16Zm16-64h18c15 0 22 7 22 16s-7 16-22 16h-18V58Z"/>
    <!-- I -->
    <rect x="658" y="62" width="16" height="60"/>
    <!-- S -->
    <path d="M720 118c-10 6-22 10-38 10-24 0-42-12-42-28 0-34 66-22 66-40 0-8-10-14-26-14-14 0-28 4-40 12l-10-12c14-10 32-16 52-16 26 0 44 12 44 30 0 36-66 22-66 40 0 8 10 14 26 14 12 0 24-4 34-10l10 14Z"/>
  </g>
</svg>