<?xml version="1.0" encoding="UTF-8"?>
<svg width="6000" height="1800" viewBox="0 0 6000 1800" xmlns="http://www.w3.org/2000/svg" role="img" aria-label="POLARIS Combined Variants – side by side">
  <!-- Panel 1: Variant A -->
  <rect x="0" y="0" width="3000" height="1800" fill="#FFFFFF"/>
  <defs>
    <radialGradient id="innerGlowNavy2" cx="50%" cy="40%" r="55%">
      <stop offset="0%" stop-color="#e6f0ff" stop-opacity="0.35"/>
      <stop offset="65%" stop-color="#092a58" stop-opacity="1"/>
      <stop offset="100%" stop-color="#092a58" stop-opacity="1"/>
    </radialGradient>
    <radialGradient id="innerGlowWhite2" cx="50%" cy="40%" r="55%">
      <stop offset="0%" stop-color="#ffffff" stop-opacity="0.5"/>
      <stop offset="65%" stop-color="#ffffff" stop-opacity="1"/>
      <stop offset="100%" stop-color="#ffffff" stop-opacity="1"/>
    </radialGradient>
  </defs>
  <g transform="translate(1500,700)">
    <polygon points="0,-360 -120,-80 120,-80" fill="url(#innerGlowNavy2)"/>
    <polygon points="0,-360 -120,-80 120,-80" fill="url(#innerGlowNavy2)" transform="rotate(36)"/>
    <polygon points="0,-360 -120,-80 120,-80" fill="url(#innerGlowNavy2)" transform="rotate(72)"/>
    <polygon points="0,-360 -120,-80 120,-80" fill="url(#innerGlowNavy2)" transform="rotate(108)"/>
    <polygon points="0,-360 -120,-80 120,-80" fill="url(#innerGlowNavy2)" transform="rotate(144)"/>
    <polygon points="0,-360 -120,-80 120,-80" fill="url(#innerGlowNavy2)" transform="rotate(180)"/>
    <polygon points="0,-360 -120,-80 120,-80" fill="url(#innerGlowNavy2)" transform="rotate(216)"/>
    <polygon points="0,-360 -120,-80 120,-80" fill="url(#innerGlowNavy2)" transform="rotate(252)"/>
    <polygon points="0,-360 -120,-80 120,-80" fill="url(#innerGlowNavy2)" transform="rotate(288)"/>
    <polygon points="0,-360 -120,-80 120,-80" fill="url(#innerGlowNavy2)" transform="rotate(324)"/>
  </g>
  <text x="1500" y="1220" text-anchor="middle" font-family="Helvetica, Arial, sans-serif" font-weight="700" font-size="240" fill="#092a58" letter-spacing="12">POLARIS</text>

  <!-- Panel 2: Variant B -->
  <rect x="3000" y="0" width="3000" height="1800" fill="#092a58"/>
  <g transform="translate(4500,700)">
    <polygon points="0,-360 -120,-80 120,-80" fill="url(#innerGlowWhite2)"/>
    <polygon points="0,-360 -120,-80 120,-80" fill="url(#innerGlowWhite2)" transform="rotate(36)"/>
    <polygon points="0,-360 -120,-80 120,-80" fill="url(#innerGlowWhite2)" transform="rotate(72)"/>
    <polygon points="0,-360 -120,-80 120,-80" fill="url(#innerGlowWhite2)" transform="rotate(108)"/>
    <polygon points="0,-360 -120,-80 120,-80" fill="url(#innerGlowWhite2)" transform="rotate(144)"/>
    <polygon points="0,-360 -120,-80 120,-80" fill="url(#innerGlowWhite2)" transform="rotate(180)"/>
    <polygon points="0,-360 -120,-80 120,-80" fill="url(#innerGlowWhite2)" transform="rotate(216)"/>
    <polygon points="0,-360 -120,-80 120,-80" fill="url(#innerGlowWhite2)" transform="rotate(252)"/>
    <polygon points="0,-360 -120,-80 120,-80" fill="url(#innerGlowWhite2)" transform="rotate(288)"/>
    <polygon points="0,-360 -120,-80 120,-80" fill="url(#innerGlowWhite2)" transform="rotate(324)"/>
  </g>
  <text x="4500" y="1220" text-anchor="middle" font-family="Helvetica, Arial, sans-serif" font-weight="700" font-size="240" fill="#ffffff" letter-spacing="12">POLARIS</text>
</svg>